<svg width="410" height="71" viewBox="0 0 410 71" fill="none" xmlns="http://www.w3.org/2000/svg">
<path d="M13.88 49.68C10.76 49.04 3 46.24 1.32 44.4C5.08 34.56 17 8.56 20.52 1.76C22.84 1.52 29.64 1.52 31.96 1.76C35.48 8.56 47.4 34.56 51.16 44.4C49.56 46.24 41.72 49.04 38.68 49.68C37 46.4 27.56 24.32 26.28 20.48C24.92 24.32 15.56 46.4 13.88 49.68ZM1.08 69.04C0.52 65.92 0.52 59.76 1.08 56.72C4.36 56.32 47.4 56.4 51.4 56.72C51.96 59.92 52.04 66.16 51.4 69.04C47.4 69.36 4.36 69.36 1.08 69.04ZM101.291 35.2C98.9713 35.68 91.7713 35.68 88.6513 35.2C88.3313 31.36 88.3313 5.12 88.6513 1.76C91.3713 1.36 98.5713 1.36 101.291 1.76C101.371 3.04 101.451 7.36 101.451 12.56H105.771C105.771 7.2 105.851 2.72 105.851 1.44C108.571 0.959999 116.091 0.959999 118.811 1.44C119.291 4.96 119.371 31.68 118.811 35.52C116.251 35.84 108.731 35.84 105.851 35.52C105.851 34.16 105.771 29.92 105.771 24.8H101.451C101.451 29.76 101.371 33.84 101.291 35.2ZM84.4913 34.16C80.4913 34.48 61.3713 34.48 57.5313 34.16C57.0513 30.88 57.0513 6.96 57.5313 3.76C60.5713 3.44 67.5313 3.44 70.8113 3.76C71.0513 7.84 71.0513 16.96 70.8113 22.08C74.4113 22 80.9713 22 84.4913 22.08C84.8113 24.4 84.8113 31.92 84.4913 34.16ZM105.611 38.32C108.491 38 116.251 38 118.811 38.32C119.131 42.32 119.211 64.8 118.811 70C114.971 70.4 63.6913 70.48 59.1313 70C58.6513 63.36 58.8112 42.4 59.1313 38.32C61.4513 38 69.7713 38 72.4913 38.32C72.5713 39.6 72.5713 41.44 72.5713 43.44C80.2513 43.36 97.9313 43.28 105.531 43.44C105.531 41.36 105.531 39.6 105.611 38.32ZM72.4913 58.88C74.2513 59.04 103.851 59.04 105.611 58.88C105.611 57.76 105.531 55.84 105.531 53.6C98.0113 53.68 80.2513 53.68 72.5713 53.6C72.5713 55.84 72.4913 57.76 72.4913 58.88ZM167.316 69.2C166.836 65.28 166.836 5.44 167.316 1.44C170.036 0.959999 177.876 0.959999 180.596 1.44C181.156 5.44 181.156 65.28 180.596 69.2C178.276 69.76 170.436 69.76 167.316 69.2ZM126.276 66.64C125.716 59.12 125.716 10.64 126.276 3.12C130.116 2.8 153.796 2.8 159.236 3.12C159.556 5.36 159.556 12.64 159.236 15.6C155.556 15.68 142.756 15.68 140.116 15.6C139.876 17.76 139.876 51.12 140.116 54C144.036 53.84 158.756 53.84 162.196 54C162.516 56.16 162.596 63.76 162.196 66.64C157.556 66.96 131.556 66.96 126.276 66.64ZM255.273 27.44C255.673 29.2 255.673 38.24 255.273 40C253.913 40.16 251.193 40.24 248.393 40.24C248.393 54.4 248.233 67.44 247.993 69.2C245.673 69.76 237.833 69.76 234.713 69.2C234.233 65.28 234.233 5.44 234.713 1.44C237.433 0.959999 245.273 0.959999 247.993 1.44C248.233 3.12 248.393 14.32 248.393 27.12C251.193 27.12 253.913 27.28 255.273 27.44ZM229.033 15.76C227.753 15.84 224.393 15.84 220.153 15.92C223.913 30.8 231.273 60.24 231.753 63.36C229.593 64.48 222.073 66.4 218.953 66.56C217.913 63.92 211.433 36.16 208.073 20.72C204.953 36.56 199.113 64.4 198.073 67.28C195.193 67.28 187.593 65.6 185.193 64.32C185.433 61.36 192.153 31.36 195.833 15.92C191.753 15.92 188.553 15.84 187.513 15.76C187.113 14 187.113 5.12 187.513 3.44C192.153 2.8 224.953 2.8 229.033 3.44C229.433 4.96 229.433 13.68 229.033 15.76ZM310.841 51.12C310.521 47.2 310.521 5.44 310.841 1.44C313.561 0.959999 321.401 0.959999 324.121 1.44C324.681 5.44 324.681 47.12 324.121 51.12C321.801 51.44 313.961 51.44 310.841 51.12ZM282.201 43.28C267.001 43.28 257.801 35.28 257.801 22.32C257.801 9.36 267.001 1.36 282.201 1.36C297.401 1.36 306.601 9.36 306.601 22.32C306.601 35.28 297.401 43.28 282.201 43.28ZM282.201 31.84C289.721 31.84 293.481 27.92 293.481 22.32C293.481 16.72 289.721 12.8 282.201 12.8C274.681 12.8 270.921 16.72 270.921 22.32C270.921 27.92 274.681 31.84 282.201 31.84ZM261.241 69.12C260.921 63.68 260.841 50.16 261.241 45.36C264.201 44.88 272.041 44.88 274.841 45.36C274.921 48 275.001 54.4 274.841 56.56C278.521 56.4 321.401 56.4 324.921 56.56C325.401 59.28 325.401 66.48 324.921 69.12C319.481 69.44 267.001 69.44 261.241 69.12ZM352.782 29.6C348.302 29.6 344.702 26.08 344.702 21.6C344.702 17.12 348.302 13.6 352.782 13.6C357.262 13.6 360.862 17.12 360.862 21.6C360.862 26.08 357.262 29.6 352.782 29.6ZM352.782 61.6C348.302 61.6 344.702 58.08 344.702 53.6C344.702 49.12 348.302 45.6 352.782 45.6C357.262 45.6 360.862 49.12 360.862 53.6C360.862 58.08 357.262 61.6 352.782 61.6ZM368.156 4.56C372.876 4.24 379.836 4.08 387.276 4.16C399.036 4.32 409.436 11.76 409.436 26.08C409.436 40.32 399.196 47.76 387.436 47.92H381.996C381.996 58.4 381.916 66.32 381.756 67.44C379.356 68 371.276 68 368.156 67.44C367.676 63.04 367.756 10.64 368.156 4.56ZM381.836 17.36C381.916 23.04 381.916 28.96 381.996 34.72C383.196 34.8 385.276 34.8 387.756 34.8C392.076 34.8 395.676 32.16 395.676 26.08C395.676 19.92 392.076 17.28 387.756 17.28C385.196 17.28 383.116 17.28 381.836 17.36Z" fill="#FFBB00"/>
</svg>
