<svg width="128" height="24" viewBox="0 0 128 24" fill="none" xmlns="http://www.w3.org/2000/svg">
<path d="M5.25793 15.9962C4.24393 15.7882 1.72193 14.8782 1.17593 14.2802C2.39793 11.0822 6.27193 2.63217 7.41593 0.422172C8.16993 0.344171 10.3799 0.344171 11.1339 0.422172C12.2779 2.63217 16.1519 11.0822 17.3739 14.2802C16.8539 14.8782 14.3059 15.7882 13.3179 15.9962C12.7719 14.9302 9.70393 7.75417 9.28793 6.50617C8.84593 7.75417 5.80393 14.9302 5.25793 15.9962ZM1.09793 22.2882C0.915926 21.2742 0.915926 19.2722 1.09793 18.2842C2.16393 18.1542 16.1519 18.1802 17.4519 18.2842C17.6339 19.3242 17.6599 21.3522 17.4519 22.2882C16.1519 22.3922 2.16393 22.3922 1.09793 22.2882Z" fill="#FFBB00"/>
<path d="M33.6666 11.2902C32.9126 11.4462 30.5726 11.4462 29.5586 11.2902C29.4546 10.0422 29.4546 1.51417 29.5586 0.422172C30.4426 0.292172 32.7826 0.292172 33.6666 0.422172C33.6926 0.838171 33.7186 2.24217 33.7186 3.93217H35.1226C35.1226 2.19017 35.1486 0.734171 35.1486 0.318172C36.0326 0.162172 38.4766 0.162172 39.3606 0.318172C39.5166 1.46217 39.5426 10.1462 39.3606 11.3942C38.5286 11.4982 36.0846 11.4982 35.1486 11.3942C35.1486 10.9522 35.1226 9.57417 35.1226 7.91017H33.7186C33.7186 9.52217 33.6926 10.8482 33.6666 11.2902ZM28.2066 10.9522C26.9066 11.0562 20.6926 11.0562 19.4446 10.9522C19.2886 9.88617 19.2886 2.11217 19.4446 1.07217C20.4326 0.968171 22.6946 0.968171 23.7606 1.07217C23.8386 2.39817 23.8386 5.36217 23.7606 7.02617C24.9306 7.00017 27.0626 7.00017 28.2066 7.02617C28.3106 7.78017 28.3106 10.2242 28.2066 10.9522ZM35.0706 12.3042C36.0066 12.2002 38.5286 12.2002 39.3606 12.3042C39.4646 13.6042 39.4906 20.9102 39.3606 22.6002C38.1126 22.7302 21.4466 22.7562 19.9646 22.6002C19.8086 20.4422 19.8606 13.6302 19.9646 12.3042C20.7186 12.2002 23.4226 12.2002 24.3066 12.3042C24.3326 12.7202 24.3326 13.3182 24.3326 13.9682C26.8286 13.9422 32.5746 13.9162 35.0446 13.9682C35.0446 13.2922 35.0446 12.7202 35.0706 12.3042ZM24.3066 18.9862C24.8786 19.0382 34.4986 19.0382 35.0706 18.9862C35.0706 18.6222 35.0446 17.9982 35.0446 17.2702C32.6006 17.2962 26.8286 17.2962 24.3326 17.2702C24.3326 17.9982 24.3066 18.6222 24.3066 18.9862Z" fill="#FFBB00"/>
<path d="M41.9165 11.6802C42.2025 11.6542 43.0345 11.6282 44.2045 11.6282C43.9965 9.83417 43.7625 6.63617 43.6845 4.76417H41.9425C41.8125 3.85417 41.8125 1.69617 41.9425 0.812171C43.1905 0.630171 55.7745 0.630171 57.1525 0.812171C57.2825 1.64417 57.2825 3.80217 57.1525 4.76417H55.4105C55.3325 6.63617 55.0985 9.83417 54.8905 11.6282C56.0605 11.6282 56.8925 11.6542 57.1785 11.6802C57.3345 12.6162 57.3345 14.4362 57.1785 15.6062C55.8265 15.7622 43.1645 15.7622 41.9165 15.6062C41.7605 14.5142 41.7605 12.6682 41.9165 11.6802ZM48.1825 4.76417C48.3645 6.74017 48.5725 9.80817 48.6505 11.6022H50.4445C50.5225 9.80817 50.7305 6.74017 50.9125 4.76417H48.1825ZM57.8545 18.3102C58.0365 19.3502 58.0625 21.3522 57.8545 22.2882C56.5545 22.3922 42.3065 22.3922 41.2405 22.2882C41.0585 21.2742 41.0585 19.2982 41.2405 18.3102C42.3065 18.1802 56.5545 18.2062 57.8545 18.3102Z" fill="#FFBB00"/>
<path d="M73.8882 16.5942C73.7842 15.3202 73.7842 1.61817 73.8882 0.318172C74.7722 0.162172 77.3202 0.162172 78.2042 0.318172C78.3862 1.61817 78.3862 15.2942 78.2042 16.5942C77.4502 16.6982 74.9022 16.6982 73.8882 16.5942ZM60.6802 14.0982C60.4982 12.7462 60.4982 7.41617 60.6802 5.59617C61.8762 5.54417 65.4382 5.54417 66.9462 5.59617V4.29617C65.4642 4.32217 61.7982 4.32217 60.5762 4.29617C60.4462 3.28217 60.4462 1.59217 60.5762 0.630171C61.7202 0.526172 70.0922 0.526172 71.2102 0.630171C71.3402 1.93017 71.3402 7.44217 71.2102 9.02817C70.0922 9.08017 66.0102 9.08017 65.1262 9.02817V10.3802C66.0362 10.3542 71.4962 10.3542 72.6402 10.3802C72.7702 11.1342 72.7702 13.2922 72.6402 14.0982C70.8722 14.2542 62.4742 14.2542 60.6802 14.0982ZM61.1482 22.3142C61.0442 20.5462 61.0182 16.8802 61.1482 15.3202C62.0322 15.1642 64.6582 15.1642 65.5682 15.3202C65.5942 16.1782 65.6202 17.5302 65.5682 18.2322C66.7642 18.1802 77.3202 18.1802 78.4642 18.2322C78.6202 19.1162 78.6202 21.4562 78.4642 22.3142C76.6962 22.4182 63.0202 22.4182 61.1482 22.3142Z" fill="#FFBB00"/>
<path d="M99.3282 13.2402C98.5742 13.3442 96.0522 13.3442 95.0382 13.2402C94.9082 11.9662 94.9082 1.61817 95.0382 0.318172C95.9222 0.162172 98.4442 0.162172 99.3282 0.318172C99.5102 1.61817 99.5102 11.9402 99.3282 13.2402ZM93.7122 12.7722C92.4122 12.8762 82.3762 12.9022 80.7122 12.7722C80.5302 11.7842 80.5042 1.85217 80.7122 0.604171C82.8182 0.500171 91.6062 0.526172 92.9322 0.604171C93.0622 1.20217 93.0622 3.33417 92.9322 4.08817C91.3982 4.11417 86.2242 4.08817 85.1322 4.08817C85.1322 4.29617 85.1062 4.63417 85.1062 5.07617C87.1862 5.02417 91.6582 5.05017 92.4642 5.10217C92.5942 5.49217 92.5942 7.98817 92.4642 8.35217C91.6582 8.40417 87.1862 8.43017 85.1062 8.37817C85.1062 8.82017 85.1322 9.15817 85.1322 9.36617C86.3022 9.34017 92.1782 9.34017 93.7122 9.36617C93.8422 10.2502 93.8422 12.1222 93.7122 12.7722ZM90.2542 13.6302C97.1442 13.6302 99.7182 15.2942 99.7182 18.3362C99.7182 21.3782 97.1442 23.0422 90.2542 23.0422C83.3642 23.0422 80.7902 21.3782 80.7902 18.3362C80.7902 15.2942 83.3642 13.6302 90.2542 13.6302ZM90.2542 19.4022C94.4142 19.4022 95.1942 19.0122 95.1942 18.3362C95.1942 17.6602 94.4142 17.2702 90.2542 17.2702C86.0942 17.2702 85.3142 17.6602 85.3142 18.3362C85.3142 19.0122 86.0942 19.4022 90.2542 19.4022Z" fill="#FFBB00"/>
<path d="M108.622 9.47017C107.166 9.47017 105.996 8.32617 105.996 6.87017C105.996 5.41417 107.166 4.27017 108.622 4.27017C110.078 4.27017 111.248 5.41417 111.248 6.87017C111.248 8.32617 110.078 9.47017 108.622 9.47017ZM108.622 19.8702C107.166 19.8702 105.996 18.7262 105.996 17.2702C105.996 15.8142 107.166 14.6702 108.622 14.6702C110.078 14.6702 111.248 15.8142 111.248 17.2702C111.248 18.7262 110.078 19.8702 108.622 19.8702Z" fill="#FFBB00"/>
<path d="M119.832 1.20217C123.654 1.25417 127.034 3.67217 127.034 8.32617C127.034 12.9542 123.706 15.3722 119.884 15.4242H118.116C118.116 18.8302 118.09 21.4042 118.038 21.7682C117.258 21.9502 114.632 21.9502 113.618 21.7682C113.462 20.3382 113.488 3.30817 113.618 1.33217C115.152 1.22817 117.414 1.17617 119.832 1.20217ZM119.988 11.1602C121.392 11.1602 122.562 10.3022 122.562 8.32617C122.562 6.32417 121.392 5.46617 119.988 5.46617C119.156 5.46617 118.48 5.46617 118.064 5.49217C118.09 7.33817 118.09 9.26217 118.116 11.1342C118.506 11.1602 119.182 11.1602 119.988 11.1602Z" fill="#FFBB00"/>
</svg>
