<svg width="203" height="61" viewBox="0 0 203 61" fill="none" xmlns="http://www.w3.org/2000/svg">
<path d="M10.184 34.485C3.648 29.849 0 24.529 0 17.081C0 8.417 5.852 1.273 17.556 0.437001C20.52 0.209 22.268 0.209 24.244 0.513C24.624 4.769 24.624 8.417 24.244 12.293C22.724 12.293 21.584 12.293 19.456 12.369C15.58 12.597 13.376 14.953 13.376 17.613C13.376 19.361 14.288 21.261 16.34 22.705C25.536 29.317 27.892 34.409 27.892 44.821C27.892 52.573 22.268 59.565 10.488 60.325C6.764 60.553 2.888 60.553 0.456 60.249C0.076 55.993 0.076 52.269 0.456 48.469C2.28 48.317 4.18 48.393 7.22 48.317C12.008 48.165 14.82 45.353 14.82 41.933C14.82 39.501 13.376 36.765 10.184 34.485Z" fill="#FFBB00"/>
<path d="M31.4848 60.249C31.0288 56.525 31.0288 4.313 31.4848 0.513C34.1448 0.0570015 43.9488 0.0570015 46.6088 0.513C51.5488 9.481 59.8328 25.593 65.6848 37.677C65.6848 21.869 65.6848 2.869 65.8368 0.589004C68.1928 0.0570015 75.8688 0.0570015 78.8328 0.589004C79.2888 4.313 79.2888 56.525 78.8328 60.325C76.1728 60.781 66.3688 60.781 63.7088 60.325C58.8448 51.433 50.5608 35.321 44.7088 23.237C44.7848 39.045 44.6328 57.969 44.4808 60.249C42.1248 60.781 34.4488 60.781 31.4848 60.249Z" fill="#FFBB00"/>
<path d="M140.443 57.589C138.087 58.805 131.399 60.781 127.751 61.009C126.991 59.185 125.015 53.789 122.735 47.177C115.971 47.253 106.091 47.253 99.4787 47.177C97.1987 53.789 95.2227 59.185 94.4627 61.009C90.8147 60.781 84.1267 58.805 81.7707 57.589C83.8987 50.673 98.4907 9.785 102.443 0.513C107.307 -0.171 115.059 -0.171 119.771 0.513C123.723 9.785 138.315 50.673 140.443 57.589ZM103.659 35.245H118.555C115.743 26.961 112.855 18.677 111.107 13.661C109.359 18.677 106.471 26.961 103.659 35.245Z" fill="#FFBB00"/>
<path d="M150.402 24.301C146.146 24.301 142.726 20.957 142.726 16.701C142.726 12.445 146.146 9.101 150.402 9.101C154.658 9.101 158.078 12.445 158.078 16.701C158.078 20.957 154.658 24.301 150.402 24.301ZM150.402 54.701C146.146 54.701 142.726 51.357 142.726 47.101C142.726 42.845 146.146 39.501 150.402 39.501C154.658 39.501 158.078 42.845 158.078 47.101C158.078 51.357 154.658 54.701 150.402 54.701Z" fill="#FFBB00"/>
<path d="M163.487 0.513C167.971 0.209 174.583 0.0570015 181.651 0.133001C192.823 0.285003 202.703 7.353 202.703 20.957C202.703 34.485 192.975 41.553 181.803 41.705H176.635C176.635 51.661 176.559 59.185 176.407 60.249C174.127 60.781 166.451 60.781 163.487 60.249C163.031 56.069 163.107 6.289 163.487 0.513ZM176.483 12.673C176.559 18.069 176.559 23.693 176.635 29.165C177.775 29.241 179.751 29.241 182.107 29.241C186.211 29.241 189.631 26.733 189.631 20.957C189.631 15.105 186.211 12.597 182.107 12.597C179.675 12.597 177.699 12.597 176.483 12.673Z" fill="#FFBB00"/>
</svg>
