<svg width="276" height="280" viewBox="0 0 276 280" fill="none" xmlns="http://www.w3.org/2000/svg">
<path d="M165.879 34.949C165.879 15.5713 181.104 0 200.481 0C219.858 0 235.082 15.5713 235.082 34.949C235.082 54.3266 219.858 69.8979 200.481 69.8979C181.104 69.8979 165.879 54.3266 165.879 34.949ZM27.4735 34.949C27.4735 15.5713 42.6981 0 62.0749 0C81.4517 0 96.6764 15.5713 96.6764 34.949C96.6764 54.3266 81.4517 69.8979 62.0749 69.8979C42.6981 69.8979 27.4735 54.3266 27.4735 34.949Z" fill="#FFBB00"/>
<path d="M275.912 184.15C275.22 235.016 243.04 280 181.104 280C119.513 280 87.334 235.708 86.642 184.842V161.312C41.3141 161.312 7.05865 160.966 2.21445 160.274C-0.207672 149.893 -0.207672 114.944 2.21445 101.449C21.2452 99.3726 247.885 99.7186 274.182 101.449C275.566 121.865 276.258 151.969 275.912 184.15ZM143.388 186.226C143.388 204.912 154.807 220.483 181.104 220.483C207.747 220.483 219.165 204.912 219.165 186.226C219.165 175.153 219.165 166.156 218.819 160.62C194.252 160.966 168.647 160.966 143.734 161.312C143.388 166.502 143.388 175.499 143.388 186.226Z" fill="#FFBB00"/>
</svg>
